<svg width="13" height="13" viewBox="0 0 13 13" fill="none" xmlns="http://www.w3.org/2000/svg">
<g clip-path="url(#clip0)">
<path d="M12.9798 12.4672C12.9591 12.4037 13.3757 13.1275 6.97064 2.14742L7.86682 0.611114C7.97986 0.417314 7.9144 0.168571 7.7206 0.0555362C7.52686 -0.0574987 7.27809 0.00793053 7.16503 0.20173L6.50033 1.34119L5.83562 0.20173C5.72259 0.00793053 5.47385 -0.0575241 5.28005 0.0555362C5.08625 0.168571 5.02079 0.417339 5.13385 0.611114L6.03003 2.14742C-0.375377 13.1281 0.0415212 12.4039 0.0208032 12.4673C-0.0583872 12.7094 0.10332 12.9674 0.360517 12.9969C0.396469 13.0009 12.5947 13.0011 12.6304 12.9979C12.8887 12.9747 13.0613 12.7166 12.9798 12.4672V12.4672ZM11.8589 12.1398C9.06887 11.7783 6.90659 9.38694 6.90659 6.49995V3.65006L11.8589 12.1398ZM6.09409 3.65006V6.49995C6.09409 9.38694 3.9318 11.7783 1.14173 12.1398L6.09409 3.65006ZM3.55873 12.1872C4.89047 11.4466 5.95518 10.2358 6.50033 8.77035C7.0446 10.2334 8.10795 11.4454 9.44192 12.1872H3.55873Z" fill="white"/>
</g>
<defs>
<clipPath id="clip0">
<rect width="13" height="13" fill="white"/>
</clipPath>
</defs>
</svg>
