<svg width="34" height="40" viewBox="0 0 34 40" fill="none" xmlns="http://www.w3.org/2000/svg">
<path d="M7.625 12.6562C8.48797 12.6562 9.1875 11.9567 9.1875 11.0938V1.5625C9.1875 0.699531 8.48797 0 7.625 0C6.76203 0 6.0625 0.699531 6.0625 1.5625V11.0938C6.0625 11.9567 6.76203 12.6562 7.625 12.6562Z" fill="white"/>
<path d="M13.4844 0C12.6214 0 11.9219 0.699531 11.9219 1.5625V11.3281C11.9219 13.6974 9.9943 15.625 7.625 15.625C5.2557 15.625 3.32812 13.6974 3.32812 11.3281V1.5625C3.32812 0.699531 2.62859 0 1.76562 0C0.902656 0 0.203125 0.699531 0.203125 1.5625V11.3281C0.203125 14.8846 2.71789 17.8645 6.0625 18.584V38.4375C6.0625 39.3005 6.76203 40 7.625 40C8.48797 40 9.1875 39.3005 9.1875 38.4375V18.584C12.5321 17.8645 15.0469 14.8846 15.0469 11.3281V1.5625C15.0469 0.699531 14.3473 0 13.4844 0Z" fill="white"/>
<path d="M31.888 4.16781C30.4136 1.48008 28.4557 0 26.375 0C24.2943 0 22.3364 1.48008 20.862 4.16781C19.6667 6.34633 18.9531 9.02312 18.9531 11.3281C18.9531 14.8846 21.4679 17.8645 24.8125 18.584V38.4375C24.8125 39.3005 25.512 40 26.375 40C27.238 40 27.9375 39.3005 27.9375 38.4375V18.584C31.2821 17.8645 33.7969 14.8846 33.7969 11.3281C33.7969 9.02312 33.0833 6.34633 31.888 4.16781ZM26.375 15.625C24.0057 15.625 22.0781 13.6974 22.0781 11.3281C22.0781 9.55156 22.662 7.38383 23.6016 5.67086C24.4632 4.10047 25.5259 3.125 26.375 3.125C27.2241 3.125 28.2868 4.10047 29.1484 5.67086C30.088 7.38383 30.6719 9.55156 30.6719 11.3281C30.6719 13.6974 28.7443 15.625 26.375 15.625Z" fill="white"/>
</svg>
